<?xml version="1.0" standalone="no"?>
<!DOCTYPE svg PUBLIC "-//W3C//DTD SVG 20010904//EN"
 "http://www.w3.org/TR/2001/REC-SVG-20010904/DTD/svg10.dtd">
<svg version="1.0" xmlns="http://www.w3.org/2000/svg"
 width="1500.000000pt" height="1500.000000pt" viewBox="0 0 1500.000000 1500.000000"
 preserveAspectRatio="xMidYMid meet">
<metadata>
Created by potrace 1.14, written by Peter Selinger 2001-2017
</metadata>
<g transform="translate(0.000000,1500.000000) scale(0.100000,-0.100000)"
fill="#000000" stroke="none">
<path d="M7191 12380 c-958 -64 -1867 -400 -2627 -973 -357 -268 -651 -558
-920 -904 -720 -925 -1088 -2087 -1025 -3235 7 -128 18 -278 25 -333 l12 -100
7 123 c31 512 183 1054 438 1565 180 359 369 617 561 765 151 116 327 129 402
29 30 -41 29 -165 -3 -267 -88 -285 -423 -800 -910 -1402 -134 -165 -121 -132
-161 -416 -40 -283 -36 -473 11 -583 42 -97 95 -105 171 -26 173 180 593 788
627 907 24 85 72 215 104 280 43 86 70 105 154 105 60 0 67 -2 94 -33 37 -41
38 -82 3 -165 -118 -277 -195 -637 -166 -774 13 -64 35 -93 68 -93 22 0 104
89 185 200 78 107 256 413 404 695 66 127 78 143 122 161 55 24 118 18 153
-13 53 -47 51 -85 -13 -248 -91 -234 -137 -434 -137 -602 0 -110 18 -166 61
-188 15 -8 35 -15 43 -15 25 0 163 128 262 243 51 60 145 177 209 261 112 148
117 156 139 243 32 129 84 250 122 288 63 63 182 59 228 -7 26 -36 19 -82 -34
-237 -53 -158 -86 -303 -95 -421 l-6 -75 34 90 c138 365 285 587 448 671 44
23 67 28 125 29 62 0 75 -3 107 -28 77 -58 104 -166 93 -372 -3 -71 -10 -149
-15 -172 -4 -23 -5 -40 -1 -38 4 3 31 46 60 97 137 242 288 416 413 478 83 41
180 47 235 15 51 -30 82 -103 82 -191 0 -142 -37 -286 -165 -639 -98 -270
-138 -400 -143 -467 -4 -56 -2 -69 11 -74 68 -26 323 286 603 736 56 91 118
190 137 221 19 31 47 94 62 140 29 89 84 213 108 241 21 26 80 48 129 48 60 0
104 -29 119 -79 11 -36 9 -47 -10 -98 -56 -142 -132 -376 -152 -463 -29 -128
-37 -322 -16 -372 19 -45 58 -72 91 -64 77 19 497 503 551 636 81 197 244 363
414 420 175 59 341 -7 341 -135 0 -165 -174 -363 -437 -498 -82 -42 -82 -42
-94 -92 -15 -63 -23 -214 -15 -258 3 -19 21 -51 40 -72 31 -36 37 -39 97 -43
59 -3 68 -1 124 33 147 89 341 271 570 534 l100 114 33 121 c18 67 49 155 70
196 32 64 43 78 82 98 102 51 210 6 210 -89 0 -20 -18 -84 -39 -141 -72 -190
-108 -363 -117 -553 l-5 -120 51 130 c134 341 279 575 440 705 88 72 148 93
245 88 144 -8 212 -66 292 -250 59 -137 81 -158 164 -158 l59 0 21 43 c62 123
181 249 291 307 212 113 428 62 428 -101 0 -111 -79 -238 -212 -344 -88 -70
-228 -159 -276 -176 -27 -9 -31 -16 -46 -92 -45 -226 4 -347 138 -347 124 0
366 201 665 550 68 80 131 150 139 157 13 11 14 39 3 234 -7 122 -18 275 -27
340 -70 568 -226 1090 -475 1588 -243 489 -526 884 -904 1266 -811 819 -1844
1313 -2995 1430 -180 19 -611 27 -789 15z m1034 -4111 c59 -17 105 -67 105
-116 0 -51 -29 -78 -98 -94 -124 -29 -267 52 -247 141 12 52 59 78 145 79 30
1 73 -4 95 -10z m918 -1 c24 -19 108 -218 101 -240 -3 -10 -16 -21 -29 -24
-48 -12 -77 9 -147 107 -93 129 -91 169 7 169 28 0 59 -6 68 -12z"/>
<path d="M3902 9200 c-163 -100 -486 -600 -658 -1022 -50 -121 -156 -429 -150
-435 10 -10 314 392 486 642 286 418 449 762 388 823 -17 17 -28 15 -66 -8z"/>
<path d="M9171 7753 c-55 -28 -138 -110 -185 -186 -43 -70 -96 -178 -96 -197
0 -20 153 84 228 155 106 100 165 220 116 239 -22 8 -24 8 -63 -11z"/>
<path d="M11775 7748 c-55 -29 -146 -124 -190 -199 -38 -65 -89 -179 -82 -185
10 -10 172 110 243 180 62 62 86 94 101 136 33 87 8 110 -72 68z"/>
<path d="M6123 7710 c-73 -44 -198 -257 -278 -474 -44 -120 -88 -286 -111
-416 -19 -115 -24 -125 -69 -140 -55 -18 -125 2 -174 51 -58 58 -76 139 -76
339 1 85 4 169 8 185 l7 30 -27 -35 c-331 -418 -518 -576 -678 -574 -114 1
-199 76 -223 199 -15 76 -14 228 2 335 7 47 12 86 11 88 -1 2 -17 -23 -35 -55
-80 -144 -228 -352 -310 -435 -105 -107 -174 -144 -248 -133 -96 14 -151 61
-188 160 -16 41 -19 77 -18 202 l0 151 -71 -106 c-182 -273 -347 -482 -466
-589 -103 -92 -164 -123 -241 -123 -96 0 -162 45 -213 145 -14 28 -23 41 -20
30 2 -11 11 -53 20 -94 40 -192 112 -440 187 -641 284 -764 734 -1422 1344
-1966 708 -632 1605 -1048 2549 -1183 243 -35 402 -45 700 -45 303 0 425 9
712 49 1093 157 2129 705 2878 1524 148 162 162 178 309 372 405 534 692 1141
851 1800 65 271 116 632 128 913 l4 90 -35 -40 c-289 -326 -455 -482 -597
-564 -110 -62 -175 -83 -266 -83 -100 -1 -166 30 -242 113 -77 82 -99 144
-104 285 -4 101 5 170 38 315 3 13 -23 16 -176 20 -164 5 -184 8 -229 30 -58
28 -98 80 -141 182 -37 86 -68 114 -111 98 -138 -52 -344 -427 -483 -880 -23
-74 -48 -141 -55 -148 -19 -19 -88 -26 -127 -13 -36 12 -89 56 -115 96 -36 55
-54 281 -35 449 l7 68 -50 -53 c-277 -295 -362 -375 -479 -452 -81 -54 -172
-93 -245 -107 -156 -28 -301 54 -375 210 -28 58 -31 77 -35 182 l-4 117 -98
-117 c-175 -211 -344 -354 -453 -387 -63 -19 -81 -19 -143 0 -131 39 -186 180
-163 421 5 59 8 108 6 110 -2 2 -40 -54 -86 -124 -247 -381 -456 -624 -593
-691 -60 -30 -74 -33 -134 -29 -60 4 -70 7 -95 36 -78 88 -64 280 48 625 109
337 144 455 159 534 17 93 18 124 1 147 -13 18 -15 17 -53 -2 -82 -42 -184
-174 -315 -409 -59 -105 -199 -392 -199 -408 0 -2 -16 -37 -35 -78 -28 -58
-43 -78 -74 -95 -55 -31 -103 -29 -143 7 -48 43 -49 109 -4 339 66 332 80 546
41 621 -19 38 -36 43 -72 21z"/>
</g>
</svg>
